PathFileType	4	(X/Y/Z)	C:/Users/opensim2020/Desktop/walking_exp_matlab/subject02_walking05_straight_02.trc	
DataRate	CameraRate	NumFrames	NumMarkers	Units	OrigDataRate	OrigDataStartFrame	OrigNumFrames	
100.00	100.00	4	42	mm	100.00	1487	243	
Frame#	Time	LFHD			RFHD			LBHD			RBHD			C7			T10			CLAV			STRN			RBAK			LSHO			LUPA			LELB			LFRM			LWRA			LWRB			LFIN			RSHO			RUPA			RELB			RFRM			RWRA			RWRB			RFIN			LASI			RASI			LPSI			RPSI			LTHI			LKNE			LTIB			LANK			LHEE			LTOE			RTHI			RKNE			RTIB			RANK			RHEE			RTOE			*39			*40			*41			
		X1	Y1	Z1	X2	Y2	Z2	X3	Y3	Z3	X4	Y4	Z4	X5	Y5	Z5	X6	Y6	Z6	X7	Y7	Z7	X8	Y8	Z8	X9	Y9	Z9	X10	Y10	Z10	X11	Y11	Z11	X12	Y12	Z12	X13	Y13	Z13	X14	Y14	Z14	X15	Y15	Z15	X16	Y16	Z16	X17	Y17	Z17	X18	Y18	Z18	X19	Y19	Z19	X20	Y20	Z20	X21	Y21	Z21	X22	Y22	Z22	X23	Y23	Z23	X24	Y24	Z24	X25	Y25	Z25	X26	Y26	Z26	X27	Y27	Z27	X28	Y28	Z28	X29	Y29	Z29	X30	Y30	Z30	X31	Y31	Z31	X32	Y32	Z32	X33	Y33	Z33	X34	Y34	Z34	X35	Y35	Z35	X36	Y36	Z36	X37	Y37	Z37	X38	Y38	Z38	X39	Y39	Z39	X40	Y40	Z40	X41	Y41	Z41	X42	Y42	Z42	

122	1.210	1531.33276	37.06143	1753.52368	1389.33252	51.80249	1733.52722	1553.89246	155.78830	1663.65613	1414.30530	182.48511	1641.91602	1476.55078	208.70203	1529.46838	1472.38464	262.94360	1254.07556	1488.09656	71.71156	1460.27954	1478.20300	20.74840	1287.21692	1410.79321	266.18900	1357.13306	1656.71423	138.51198	1502.74792	1748.20959	127.59172	1306.08472	1770.11951	102.91856	1167.88391	1784.80774	54.25835	1044.89722	1754.83044	-36.60412	943.29236	1787.83276	7.73972	931.41876	1795.24023	-32.14683	879.31500	1291.40356	125.93867	1497.13318	1204.00720	150.63365	1307.09497	1182.85364	133.65819	1162.26660	1161.09619	92.59988	1049.32410	1177.04150	29.54907	929.33325	1145.22461	76.05163	920.67310	1141.44019	31.00978	863.10333	1605.86340	31.00611	995.20526	1350.23743	33.66981	983.36255	1526.39063	240.53142	1036.41187	1411.74817	246.29028	1034.90674	1645.58618	91.84041	677.62372	1607.62402	125.94729	477.23703	1601.31494	187.57286	290.95981	1554.42102	191.91554	70.39450	1502.66492	227.93234	43.15629	1566.31079	36.25011	33.30603	1262.41870	55.54859	683.18561	1278.69873	10.81141	487.01868	1289.73633	121.75192	339.19165	1333.80725	210.94197	171.35840	1400.56287	247.24658	128.45734	1287.09790	108.76705	59.39813	1454.14954	155.62912	1806.39185	-3360.33740	2845.24561	1033.77100			 
123	1.220	1531.15967	27.11115	1753.21619	1388.98132	42.10340	1732.78906	1554.17212	145.99551	1663.81323	1414.70520	172.99217	1641.73950	1477.52234	199.33405	1529.52612	1472.95972	254.28951	1254.28333	1488.63562	62.55357	1460.08655	1479.31079	12.08722	1286.87500	1411.83325	257.34656	1357.14075	1657.47510	128.59683	1503.38403	1749.07288	115.08892	1307.11304	1771.22021	88.73298	1169.15625	1784.73242	37.63150	1046.82629	1753.14819	-54.62378	947.07947	1786.80762	-11.13555	934.21454	1793.36609	-52.08244	882.84583	1292.19043	117.39439	1496.72864	1205.24158	144.29955	1306.96179	1183.00476	127.52725	1162.14600	1160.98376	86.31746	1049.04309	1176.77246	23.30307	929.19562	1145.36108	69.93494	920.28882	1141.23901	24.69548	863.13544	1607.62268	24.06202	994.42053	1352.02368	24.61554	983.94586	1525.91833	232.79724	1036.40747	1411.20520	237.69139	1035.64966	1645.43713	87.14893	676.80725	1607.66174	123.65654	477.03043	1600.94788	186.60623	291.17230	1554.25977	191.91014	70.51026	1502.52759	227.95815	43.34542	1566.45813	36.31495	33.25323	1263.33484	43.24295	684.36737	1280.52209	-3.80124	488.09827	1290.62085	101.11668	335.39554	1333.11279	182.77460	163.38303	1399.53125	217.84134	118.48425	1286.69153	74.91936	57.16460	1453.95508	145.70474	1806.23230	-3357.08936	2845.98828	1033.81335			 
124	1.230	1530.94458	17.13041	1753.05981	1389.15869	32.28328	1732.57605	1554.34399	136.18596	1663.83301	1414.95837	163.38115	1641.37683	1478.44666	190.02800	1529.49084	1473.45154	245.60634	1254.40625	1489.11804	53.32494	1459.82202	1480.31628	3.32191	1286.43567	1413.13770	248.77209	1357.28162	1657.67761	118.46481	1503.40137	1749.96228	102.69107	1308.04858	1772.10156	74.62249	1170.20398	1784.36353	21.00654	1048.50354	1751.28259	-72.44317	950.74237	1785.52271	-29.93400	936.79211	1791.32703	-71.67410	886.32123	1292.89282	109.01840	1496.07959	1205.79944	137.25471	1306.63354	1183.46277	121.31274	1161.71985	1161.08838	80.16199	1048.53479	1176.47693	16.93563	929.08917	1145.74670	64.09439	919.81104	1140.93054	18.56634	862.83917	1609.22717	17.10066	993.37036	1353.64880	15.52900	984.19354	1525.43848	224.97203	1036.28125	1410.67078	229.09778	1036.16614	1645.69299	82.84452	676.48737	1607.70569	121.20056	476.75824	1600.70190	185.63126	291.40503	1553.97424	191.74260	70.45464	1502.38379	227.95433	43.44686	1566.62170	36.35166	33.23298	1264.10315	31.28347	685.53046	1282.31140	-17.96793	488.95502	1291.17468	80.57868	331.43048	1332.31384	154.30222	155.46364	1398.08411	187.65559	108.24608	1286.61804	40.76519	55.33007	1453.85706	135.84846	1806.06921	-3360.25513	2845.12695	1033.63879			 
125	1.240	1530.70935	7.26132	1752.68762	1388.85193	22.77999	1731.73254	1554.52344	126.39058	1663.71875	1415.20691	153.81186	1640.95410	1479.15186	180.67810	1529.31067	1473.84387	236.90210	1254.40942	1489.55103	44.11736	1459.40942	1481.27234	-5.52724	1285.85571	1414.25525	240.10834	1357.04272	1658.46179	108.72793	1503.75195	1750.54138	90.52054	1308.72791	1772.88074	60.62519	1171.17102	1784.26245	4.91177	1050.42029	1749.35669	-89.90148	954.36621	1784.21130	-47.99262	939.63159	1788.88721	-91.09901	889.66553	1293.38794	100.62963	1495.26563	1206.96960	130.74648	1306.28638	1183.59998	114.94129	1161.28394	1161.22302	74.10452	1048.07251	1176.04553	10.72356	928.52325	1145.79785	57.91165	919.19305	1140.59558	12.51011	862.35767	1611.03247	9.13312	992.27441	1354.87573	6.28215	984.23584	1524.94263	217.07918	1036.00281	1410.20801	220.42368	1036.38586	1645.70105	78.33202	675.91199	1607.62671	118.62105	476.47073	1600.55481	184.34372	291.61414	1553.78882	191.62503	70.55389	1502.18225	227.89342	43.59383	1566.71326	36.31116	33.14845	1264.85107	19.62986	686.31860	1284.06152	-31.74320	489.37970	1291.43872	60.05321	327.25784	1331.40747	125.89426	147.54883	1396.54541	158.10262	98.88998	1286.65149	6.28363	53.57365	1453.60999	125.98548	1805.66956	-3360.28198	2845.20361	1033.92163			 
